# File created by Blade
# Date/Time:  Tue Sep 30 19:29:51 2014
#---------------------------------------------------------
:version 1.10
:name HOM
:units
  mass 1.0
  length 1.000000
  angle deg
:documentation
     Acclaim Skeleton File
:root
   axis xyz
   order TX TY TZ RX RY RZ
   position 0.000000 0.000000 0.000000
   orientation 0 0 0
:bonedata
   begin
      id 1
      name RightUpLeg_dum
      direction -1.000000 0.000000 0.000000
      length 3.766986
      axis 0.0 0.0 0.0 xyz
   end
   begin
      id 2
      name LeftUpLeg_dum
      direction 1.000000 0.000000 0.000000
      length 3.766986
      axis 0.0 0.0 0.0 xyz
   end
   begin
      id 3
      name Spine_dum
      direction 0.000000 1.000000 0.000000
      length 7.779697
      axis 0.0 0.0 0.0 xyz
   end
   begin
      id 4
      name RightUpLeg
      direction 0.000000 -1.000000 0.000000
      length 18.017682
      axis 0.0 0.0 0.0 xyz
      dof rx ry rz
   end
   begin
      id 5
      name RightLeg
      direction 0.000000 -1.000000 0.000000
      length 16.881075
      axis 0.0 0.0 0.0 xyz
      dof rx ry rz
   end
   begin
      id 6
      name RightFoot
      direction 0.000000 -0.258819 0.965926
      length 5.770812
      axis 15.0 0.0 0.0 xyz
      dof rx ry rz
   end
   begin
      id 7
      name RightToeBase
      direction 0.000000 0.000000 1.000000
      length 2.952750
      axis 0.0 0.0 0.0 xyz
      dof rx ry rz
   end
   begin
      id 8
      name LeftUpLeg
      direction 0.000000 -1.000000 0.000000
      length 18.017682
      axis 0.0 0.0 0.0 xyz
      dof rx ry rz
   end
   begin
      id 9
      name LeftLeg
      direction 0.000000 -1.000000 0.000000
      length 16.881075
      axis 0.0 0.0 0.0 xyz
      dof rx ry rz
   end
   begin
      id 10
      name LeftFoot
      direction 0.000000 -0.258819 0.965926
      length 5.770812
      axis 15.0 0.0 0.0 xyz
      dof rx ry rz
   end
   begin
      id 11
      name LeftToeBase
      direction 0.000000 0.000000 1.000000
      length 2.952750
      axis 0.0 0.0 0.0 xyz
      dof rx ry rz
   end
   begin
      id 12
      name Spine
      direction 0.000000 1.000000 0.000000
      length 0.000000
      axis 0.0 0.0 0.0 xyz
      dof rx ry rz
   end
   begin
      id 13
      name Spine_dum1
      direction 0.000000 1.000000 0.000000
      length 10.941760
      axis 0.0 0.0 0.0 xyz
   end
   begin
      id 14
      name Spine_dum2
      direction 0.000000 1.000000 0.000000
      length 10.941760
      axis 0.0 0.0 0.0 xyz
   end
   begin
      id 15
      name Spine_dum3
      direction 0.000000 1.000000 0.000000
      length 16.646042
      axis 0.0 0.0 0.0 xyz
   end
   begin
      id 16
      name RightShoulder
      direction -1.000000 0.000000 0.000000
      length 7.708937
      axis 0.0 0.0 90.0 xyz
      dof rx ry rz
   end
   begin
      id 17
      name RightArm
      direction -1.000000 0.000000 0.000000
      length 11.521345
      axis 0.0 0.0 90.0 xyz
      dof rx ry rz
   end
   begin
      id 18
      name RightForeArm
      direction -1.000000 0.000000 0.000000
      length 10.175898
      axis 0.0 0.0 90.0 xyz
      dof ry rz rx
   end
   begin
      id 19
      name RightHand
      direction -1.000000 0.000000 0.000000
      length 0.000000
      axis 0.0 0.0 90.0 xyz
      dof rx ry rz
   end
   begin
      id 20
      name RightHand_dum1
      direction -1.000000 0.000000 0.000000
      length 3.937000
      axis 0.0 0.0 90.0 xyz
   end
   begin
      id 21
      name RightHand_dum2
      direction 0.000000 0.000000 0.000000
      length 0.000000
      axis 0.0 0.0 90.0 xyz
   end
   begin
      id 22
      name RightHandThumb1
      direction 0.000000 0.000000 1.000000
      length 3.937000
      axis 0.0 0.0 90.0 xyz
      dof rx rz ry
   end
   begin
      id 23
      name LeftShoulder
      direction 1.000000 0.000000 0.000000
      length 7.708937
      axis 0.0 0.0 -90.0 xyz
      dof rx ry rz
   end
   begin
      id 24
      name LeftArm
      direction 1.000000 0.000000 0.000000
      length 11.521345
      axis 0.0 0.0 -90.0 xyz
      dof rx ry rz
   end
   begin
      id 25
      name LeftForeArm
      direction 1.000000 0.000000 0.000000
      length 10.175898
      axis 0.0 0.0 -90.0 xyz
      dof ry rz rx
   end
   begin
      id 26
      name LeftHand
      direction 1.000000 0.000000 0.000000
      length 0.000000
      axis 0.0 0.0 -90.0 xyz
      dof rx ry rz
   end
   begin
      id 27
      name LeftHand_dum1
      direction 1.000000 0.000000 0.000000
      length 3.937000
      axis 0.0 0.0 -90.0 xyz
   end
   begin
      id 28
      name LeftHand_dum2
      direction 0.000000 0.000000 0.000000
      length 0.000000
      axis 0.0 0.0 -90.0 xyz
   end
   begin
      id 29
      name LeftHandThumb1
      direction 0.000000 0.000000 1.000000
      length 3.937000
      axis 0.0 0.0 -90.0 xyz
      dof rx rz ry
   end
   begin
      id 30
      name Head
      direction 0.000000 1.000000 0.000000
      length 4.527550
      axis 0.0 0.0 0.0 xyz
      dof rx ry rz
   end
:hierarchy
   begin
      root RightUpLeg_dum LeftUpLeg_dum Spine_dum
      RightUpLeg_dum RightUpLeg
      LeftUpLeg_dum LeftUpLeg
      Spine_dum Spine
      RightUpLeg RightLeg
      RightLeg RightFoot
      RightFoot RightToeBase
      LeftUpLeg LeftLeg
      LeftLeg LeftFoot
      LeftFoot LeftToeBase
      Spine Spine_dum1 Spine_dum2 Spine_dum3
      Spine_dum1 RightShoulder
      Spine_dum2 LeftShoulder
      Spine_dum3 Head
      RightShoulder RightArm
      RightArm RightForeArm
      RightForeArm RightHand
      RightHand RightHand_dum1 RightHand_dum2
      RightHand_dum2 RightHandThumb1
      LeftShoulder LeftArm
      LeftArm LeftForeArm
      LeftForeArm LeftHand
      LeftHand LeftHand_dum1 LeftHand_dum2
      LeftHand_dum2 LeftHandThumb1
   end

# File created by Blade
# Date/Time:  Mon Sep 22 17:46:01 2014
# Frame Rate: 120.000 fps
#------------------------------------------------------
:FULLY-SPECIFIED
:DEGREES
567
root 4.879046 37.400025 4.346158 -10.215920 12.895172 -0.509065
RightUpLeg -34.863702 -4.723026 20.296446
RightLeg 86.236682 -0.000000 -0.000000
RightFoot -1.829493 -18.623082 10.262212
RightToeBase -3.121339 -0.000000 0.000000
LeftUpLeg 15.358248 -12.451563 -8.017612
LeftLeg 1.118179 -0.000000 -0.000000
LeftFoot -7.142395 7.545493 -10.332445
LeftToeBase 6.492917 -0.000000 -0.000000
Spine 15.370854 -14.160589 -12.213252
RightShoulder -1.368036 -32.112091 -4.466504
RightArm 19.756231 -25.399003 63.731037
RightForeArm 8.501187 0.000000 46.476146
RightHand -3.236085 -0.000000 -8.083944
RightHandThumb1 -24.326973 -0.000000 -32.862282
LeftShoulder -13.629409 30.616716 4.214203
LeftArm 62.716047 -12.818500 -69.512951
LeftForeArm 17.634065 -0.000000 84.130964
LeftHand -23.471418 -0.000000 15.768953
LeftHandThumb1 -26.253704 0.000000 33.147579
Head 19.697863 2.032193 14.217413
568
root 4.899706 37.384123 4.354613 -10.227595 12.552011 0.007685
RightUpLeg -35.040244 -5.017243 20.322238
RightLeg 87.224409 -0.000000 -0.000000
RightFoot -2.391559 -18.405310 10.883576
RightToeBase -2.314993 -0.000000 0.000000
LeftUpLeg 15.505116 -11.254278 -8.224232
LeftLeg 0.954668 -0.000000 -0.000000
LeftFoot -6.807927 6.514013 -10.535904
LeftToeBase 6.620513 -0.000000 -0.000000
Spine 15.401882 -13.659234 -12.871841
RightShoulder -1.406527 -32.115626 -4.273592
RightArm 19.718417 -25.418470 63.801085
RightForeArm 8.511591 -0.000000 46.412889
RightHand -3.339198 0.000000 -7.785369
RightHandThumb1 -24.326973 -0.000000 -32.862282
LeftShoulder -13.623683 30.542641 4.287998
LeftArm 62.714677 -12.971482 -69.464565
LeftForeArm 17.548413 0.000000 84.165345
LeftHand -23.412869 -0.000000 15.782864
LeftHandThumb1 -26.253704 0.000000 33.147579
Head 19.683990 1.984948 14.449912
569
root 4.913973 37.360063 4.362895 -10.246830 12.266534 0.265666
RightUpLeg -35.264137 -5.358917 20.575391
RightLeg 88.168434 -0.000000 -0.000000
RightFoot -2.914441 -18.250707 11.460855
RightToeBase -1.770598 -0.000000 0.000000
LeftUpLeg 15.648524 -10.405608 -8.304827
LeftLeg 0.768978 -0.000000 -0.000000
LeftFoot -6.705101 6.022577 -10.360923
LeftToeBase 6.667793 -0.000000 -0.000000
Spine 15.385647 -13.334495 -13.148758
RightShoulder -1.428891 -32.078933 -4.246847
RightArm 19.700801 -25.497606 63.844462
RightForeArm 8.525630 -0.000000 46.313784
RightHand -3.221907 -0.000000 -8.085135
RightHandThumb1 -24.326973 -0.000000 -32.862282
LeftShoulder -13.640135 30.473098 4.229487
LeftArm 62.722097 -13.130227 -69.469814
LeftForeArm 17.463949 -0.000000 84.194280
LeftHand -23.122112 0.000000 15.596700
LeftHandThumb1 -26.253704 0.000000 33.147579
Head 19.667325 2.061581 14.451425
570
root 4.926486 37.333782 4.367228 -10.266018 11.987927 0.574019
RightUpLeg -35.507660 -5.662870 20.766114
RightLeg 89.121527 -0.000000 -0.000000
RightFoot -3.444166 -18.144525 12.083877
RightToeBase -1.044576 -0.000000 0.000000
LeftUpLeg 15.847023 -10.098362 -8.628124
LeftLeg 0.531067 -0.000000 -0.000000
LeftFoot -6.654816 6.247906 -10.186798
LeftToeBase 6.552735 -0.000000 -0.000000
Spine 15.405348 -13.009032 -13.526683
RightShoulder -1.428912 -32.008192 -4.210343
RightArm 19.654712 -25.564428 63.938289
RightForeArm 8.604476 0.000000 46.241365
RightHand -3.210888 -0.000000 -8.126150
RightHandThumb1 -24.326973 -0.000000 -32.862282
LeftShoulder -13.668904 30.404664 4.230921
LeftArm 62.737114 -13.293143 -69.500509
LeftForeArm 17.533999 -0.000000 84.258002
LeftHand -23.333738 -0.000000 15.714773
LeftHandThumb1 -26.253704 0.000000 33.147579
Head 19.578294 2.078953 14.484011
571
root 4.936991 37.283859 4.354662 -10.114611 11.849066 0.605275
RightUpLeg -36.431224 -6.347377 21.371503
RightLeg 90.415444 -0.000000 -0.000000
RightFoot -1.948334 -19.179176 10.691895
RightToeBase -3.521998 -0.000000 0.000000
LeftUpLeg 15.632209 -10.829369 -8.915622
LeftLeg 0.736505 -0.000000 -0.000000
LeftFoot -7.227693 7.278842 -9.940974
LeftToeBase 6.448454 -0.000000 -0.000000
Spine 15.205915 -12.988533 -13.440914
RightShoulder -1.445542 -31.964515 -4.420484
RightArm 19.674771 -25.679323 64.023855
RightForeArm 8.487590 -0.000000 46.171250
RightHand -3.234750 0.000000 -7.817950
RightHandThumb1 -24.326973 -0.000000 -32.862282
LeftShoulder -13.779820 30.398090 4.078190
LeftArm 62.824378 -13.399229 -69.609533
LeftForeArm 17.501563 -0.000000 84.331404
LeftHand -23.355657 -0.000000 15.683833
LeftHandThumb1 -26.253704 0.000000 33.147579
Head 19.428476 2.145095 14.178091
572
root 4.944553 37.236078 4.343762 -10.004585 11.726897 0.582021
RightUpLeg -37.272698 -7.269482 22.211283
RightLeg 91.367469 -0.000000 -0.000000
RightFoot -1.297972 -21.278830 10.779846
RightToeBase -4.400605 -0.000000 0.000000
LeftUpLeg 15.460617 -11.590903 -9.165410
LeftLeg 0.936920 -0.000000 -0.000000
LeftFoot -7.805528 8.367473 -9.661941
LeftToeBase 6.338303 -0.000000 -0.000000
Spine 15.047690 -12.990590 -13.299625
RightShoulder -1.416096 -31.904542 -4.676996
RightArm 19.656386 -25.757339 64.168838
RightForeArm 8.494082 -0.000000 46.106248
RightHand -3.332050 0.000000 -7.691139
RightHandThumb1 -24.326973 -0.000000 -32.862282
LeftShoulder -13.835976 30.314702 3.944248
LeftArm 62.812295 -13.513873 -69.718935
LeftForeArm 17.421463 -0.000000 84.422748
LeftHand -23.304533 -0.000000 15.614769
LeftHandThumb1 -26.253704 0.000000 33.147579
Head 19.285474 2.313846 13.917838
573
root 4.942815 37.184797 4.333372 -9.901530 11.627566 0.400367
RightUpLeg -37.908424 -7.756165 22.926320
RightLeg 92.238212 -0.000000 -0.000000
RightFoot -1.139820 -21.884053 10.847900
RightToeBase -4.522896 -0.000000 0.000000
LeftUpLeg 15.266525 -12.441768 -9.280494
LeftLeg 1.171231 -0.000000 -0.000000
LeftFoot -8.476840 9.613323 -9.149730
LeftToeBase 6.134827 -0.000000 -0.000000
Spine 14.852227 -13.054499 -12.938793
RightShoulder -1.383982 -31.909683 -5.000424
RightArm 19.716300 -25.802750 64.282773
RightForeArm 8.558191 -0.000000 46.003186
RightHand -3.268416 0.000000 -7.538389
RightHandThumb1 -24.326973 -0.000000 -32.862282
LeftShoulder -13.905832 30.353585 3.740242
LeftArm 62.915546 -13.649826 -69.878956
LeftForeArm 17.416204 -0.000000 84.499458
LeftHand -23.232582 -0.000000 15.494883
LeftHandThumb1 -26.253704 0.000000 33.147579
Head 19.181170 2.465432 13.526731
574
root 4.950281 37.155888 4.335595 -9.884060 11.413739 0.581284
RightUpLeg -38.221987 -7.935034 23.126291
RightLeg 93.185751 -0.000000 -0.000000
RightFoot -1.348114 -21.666623 10.940995
RightToeBase -4.132859 -0.000000 0.000000
LeftUpLeg 15.394383 -12.688811 -9.586676
LeftLeg 1.010326 -0.000000 -0.000000
LeftFoot -8.642026 10.149901 -9.181961
LeftToeBase 6.254165 -0.000000 -0.000000
Spine 14.816630 -12.847512 -13.138032
RightShoulder -1.364158 -31.845614 -5.039956
RightArm 19.665779 -25.852771 64.392053
RightForeArm 8.744831 -0.000000 45.915585
RightHand -3.232649 0.000000 -7.721340
RightHandThumb1 -24.326973 -0.000000 -32.862282
LeftShoulder -13.925444 30.280082 3.721056
LeftArm 62.877447 -13.789008 -69.971976
LeftForeArm 17.397342 -0.000000 84.612343
LeftHand -23.254891 -0.000000 15.611377
LeftHandThumb1 -26.253704 0.000000 33.147579
Head 19.083070 2.518174 13.471063
575
root 4.966332 37.135849 4.339543 -9.882622 11.144635 0.868214
RightUpLeg -38.500963 -8.109689 23.220085
RightLeg 94.045115 -0.000000 -0.000000
RightFoot -1.553924 -21.650943 11.346408
RightToeBase -3.951093 -0.000000 0.000000
LeftUpLeg 15.576535 -13.017095 -10.025963
LeftLeg 0.801773 -0.000000 -0.000000
LeftFoot -8.651422 10.697785 -9.416720
LeftToeBase 6.160793 -0.000000 -0.000000
Spine 14.788818 -12.518346 -13.449007
RightShoulder -1.374936 -31.834372 -5.006515
RightArm 19.660889 -25.851288 64.484508
RightForeArm 8.703875 -0.000000 45.803434
RightHand -3.236222 -0.000000 -7.756870
RightHandThumb1 -24.326973 -0.000000 -32.862282
LeftShoulder -13.948045 30.334808 3.641836
LeftArm 62.995569 -13.976945 -70.025032
LeftForeArm 17.270785 0.000000 84.681318
LeftHand -23.213341 -0.000000 15.696643
LeftHandThumb1 -26.253704 0.000000 33.147579
Head 19.020938 2.582305 13.529991
576
root 4.989996 37.118508 4.336196 -9.800267 10.892646 1.195371
RightUpLeg -38.894337 -8.335909 23.321069
RightLeg 94.794463 -0.000000 -0.000000
RightFoot -1.565950 -21.940088 11.474087
RightToeBase -3.975389 -0.000000 0.000000
LeftUpLeg 15.587456 -13.136049 -10.442793
LeftLeg 0.720990 -0.000000 -0.000000
LeftFoot -8.610531 11.117299 -9.494214
LeftToeBase 6.056307 -0.000000 -0.000000
Spine 14.672924 -12.225531 -13.770667
RightShoulder -1.380688 -31.848604 -4.965159
RightArm 19.675455 -25.868439 64.510547
RightForeArm 8.757437 -0.000000 45.715580
RightHand -3.322754 0.000000 -7.560121
RightHandThumb1 -24.326973 -0.000000 -32.862282
LeftShoulder -13.963606 30.338078 3.566320
LeftArm 63.039007 -14.140312 -70.092796
LeftForeArm 17.261577 -0.000000 84.752177
LeftHand -23.056631 -0.000000 15.449550
LeftHandThumb1 -26.253704 0.000000 33.147579
Head 19.004599 2.628930 13.533107
